<svg xmlns="http://www.w3.org/2000/svg" xmlns:xlink="http://www.w3.org/1999/xlink" width="1600" zoomAndPan="magnify" viewBox="0 0 1200 225" height="300" preserveAspectRatio="xMidYMid meet" version="1.0"><defs><g/></defs><path fill="#5271ff" d="M 14.296875 80.507812 L 96.871094 6.371094 C 103.980469 -0.0117188 115.132812 1.589844 120.15625 9.71875 L 176.753906 101.222656 C 186.125 116.378906 166.457031 132.636719 153.335938 120.578125 L 109.363281 80.171875 C 104.8125 75.992188 98.199219 74.949219 92.585938 77.53125 L 30.945312 105.851562 C 14.972656 113.191406 1.214844 92.253906 14.296875 80.507812 " fill-opacity="1" fill-rule="nonzero"/><path fill="#333333" d="M 247.683594 139.515625 L 159.097656 219.046875 C 152.46875 224.996094 142.070312 223.503906 137.382812 215.929688 L 82.023438 126.410156 C 73.476562 112.59375 90.933594 97.496094 103.375 107.941406 L 148.101562 145.496094 C 152.335938 149.050781 158.242188 149.847656 163.265625 147.539062 L 232.160156 115.882812 C 247.058594 109.042969 259.878906 128.5625 247.683594 139.515625 " fill-opacity="1" fill-rule="nonzero"/><g fill="#333333" fill-opacity="1"><g transform="translate(260.000262, 170.772871)"><g><path d="M 108.171875 -123.789062 L 87.855469 -123.789062 C 83.527344 -123.789062 81.648438 -123.222656 79.203125 -118.144531 L 57.945312 -77.695312 L 35.933594 -118.144531 C 33.296875 -123.222656 31.417969 -123.789062 27.089844 -123.789062 L 5.457031 -123.789062 C 1.882812 -123.789062 1.503906 -120.589844 2.445312 -118.519531 L 42.707031 -46.46875 L 42.707031 -5.457031 C 42.707031 -1.128906 44.585938 0 48.160156 0 L 66.972656 0 C 70.359375 0 72.429688 -1.128906 72.429688 -5.457031 L 72.429688 -46.46875 L 111.183594 -118.519531 C 112.125 -120.589844 111.75 -123.789062 108.171875 -123.789062 Z M 108.171875 -123.789062 "/></g></g></g><g fill="#333333" fill-opacity="1"><g transform="translate(373.620003, 170.772871)"><g><path d="M 120.402344 -5.269531 L 78.824219 -117.957031 C 77.132812 -121.90625 75.25 -123.789062 71.113281 -123.789062 L 53.050781 -123.789062 C 48.914062 -123.789062 46.84375 -121.90625 45.339844 -117.957031 L 3.574219 -5.269531 C 2.632812 -3.011719 2.632812 0 6.773438 0 L 26.527344 0 C 30.664062 0 32.167969 -1.128906 33.675781 -5.644531 L 38.941406 -20.507812 L 85.035156 -20.507812 L 90.300781 -5.644531 C 91.804688 -1.128906 93.3125 0 97.449219 0 L 117.203125 0 C 121.34375 0 121.34375 -3.011719 120.402344 -5.269531 Z M 62.082031 -88.421875 L 76.191406 -46.84375 L 47.972656 -46.84375 Z M 62.082031 -88.421875 "/></g></g></g><g fill="#5271ff" fill-opacity="1"><g transform="translate(496.843068, 170.772871)"><g><path d="M 97.636719 -26.339844 L 43.457031 -26.339844 L 43.457031 -118.332031 C 43.457031 -122.660156 41.386719 -123.789062 38 -123.789062 L 19.378906 -123.789062 C 15.992188 -123.789062 13.921875 -122.660156 13.921875 -118.332031 L 13.921875 -5.457031 C 13.921875 -2.070312 15.050781 0 19.378906 0 L 97.636719 0 C 101.964844 0 103.09375 -2.070312 103.09375 -5.457031 L 103.09375 -20.882812 C 103.09375 -24.269531 101.964844 -26.339844 97.636719 -26.339844 Z M 97.636719 -26.339844 "/></g></g></g><g fill="#5271ff" fill-opacity="1"><g transform="translate(606.324347, 170.772871)"><g><path d="M 97.636719 -26.339844 L 43.457031 -26.339844 L 43.457031 -118.332031 C 43.457031 -122.660156 41.386719 -123.789062 38 -123.789062 L 19.378906 -123.789062 C 15.992188 -123.789062 13.921875 -122.660156 13.921875 -118.332031 L 13.921875 -5.457031 C 13.921875 -2.070312 15.050781 0 19.378906 0 L 97.636719 0 C 101.964844 0 103.09375 -2.070312 103.09375 -5.457031 L 103.09375 -20.882812 C 103.09375 -24.269531 101.964844 -26.339844 97.636719 -26.339844 Z M 97.636719 -26.339844 "/></g></g></g><g fill="#333333" fill-opacity="1"><g transform="translate(715.821602, 170.772871)"><g><path d="M 120.402344 -5.269531 L 78.824219 -117.957031 C 77.132812 -121.90625 75.25 -123.789062 71.113281 -123.789062 L 53.050781 -123.789062 C 48.914062 -123.789062 46.84375 -121.90625 45.339844 -117.957031 L 3.574219 -5.269531 C 2.632812 -3.011719 2.632812 0 6.773438 0 L 26.527344 0 C 30.664062 0 32.167969 -1.128906 33.675781 -5.644531 L 38.941406 -20.507812 L 85.035156 -20.507812 L 90.300781 -5.644531 C 91.804688 -1.128906 93.3125 0 97.449219 0 L 117.203125 0 C 121.34375 0 121.34375 -3.011719 120.402344 -5.269531 Z M 62.082031 -88.421875 L 76.191406 -46.84375 L 47.972656 -46.84375 Z M 62.082031 -88.421875 "/></g></g></g><g fill="#333333" fill-opacity="1"><g transform="translate(839.035062, 170.772871)"><g><path d="M 61.519531 -123.789062 L 19.378906 -123.789062 C 15.050781 -123.789062 13.921875 -121.71875 13.921875 -118.332031 L 13.921875 -5.457031 C 13.921875 -2.070312 15.050781 0 19.378906 0 L 61.519531 0 C 83.90625 0 112.125 -12.792969 112.125 -42.328125 L 112.125 -81.460938 C 112.125 -110.808594 83.90625 -123.789062 61.519531 -123.789062 Z M 82.589844 -78.824219 L 82.589844 -44.960938 C 82.589844 -32.921875 73.933594 -26.148438 61.519531 -26.148438 L 43.457031 -26.148438 L 43.457031 -97.636719 L 61.519531 -97.636719 C 73.933594 -97.636719 82.589844 -90.679688 82.589844 -78.824219 Z M 82.589844 -78.824219 "/></g></g></g><g fill="#333333" fill-opacity="1"><g transform="translate(961.307956, 170.772871)"><g><path d="M 103.660156 -26.339844 L 43.644531 -26.339844 L 43.644531 -51.171875 L 94.0625 -51.171875 C 98.390625 -51.171875 99.519531 -53.242188 99.519531 -56.625 L 99.519531 -71.300781 C 99.519531 -74.6875 98.390625 -76.757812 94.0625 -76.757812 L 43.644531 -76.757812 L 43.644531 -97.261719 L 100.460938 -97.261719 C 104.789062 -97.261719 105.917969 -99.332031 105.917969 -102.71875 L 105.917969 -118.332031 C 105.917969 -121.71875 104.789062 -123.789062 100.460938 -123.789062 L 19.378906 -123.789062 C 15.050781 -123.789062 13.921875 -121.71875 13.921875 -118.332031 L 13.921875 -5.457031 C 13.921875 -2.070312 15.050781 0 19.378906 0 L 103.660156 0 C 107.984375 0 109.113281 -2.070312 109.113281 -5.457031 L 109.113281 -20.882812 C 109.113281 -24.269531 107.984375 -26.339844 103.660156 -26.339844 Z M 103.660156 -26.339844 "/></g></g></g><g fill="#333333" fill-opacity="1"><g transform="translate(1079.254255, 170.772871)"><g><path d="M 112.6875 -123.789062 L 92.746094 -123.789062 C 87.667969 -123.789062 86.351562 -122.285156 84.847656 -117.769531 L 59.449219 -39.882812 L 33.863281 -117.769531 C 32.359375 -122.285156 31.042969 -123.789062 26.148438 -123.789062 L 5.269531 -123.789062 C 1.691406 -123.789062 0.941406 -120.777344 1.882812 -118.332031 L 42.328125 -5.644531 C 44.585938 -0.753906 45.902344 0 50.042969 0 L 68.101562 0 C 72.242188 0 73.558594 -0.753906 75.816406 -5.644531 L 116.074219 -118.332031 C 117.015625 -120.777344 116.261719 -123.789062 112.6875 -123.789062 Z M 112.6875 -123.789062 "/></g></g></g></svg>